<?xml version="1.0" standalone="no"?>
<!DOCTYPE svg PUBLIC "-//W3C//DTD SVG 20010904//EN"
 "http://www.w3.org/TR/2001/REC-SVG-20010904/DTD/svg10.dtd">
<svg version="1.0" xmlns="http://www.w3.org/2000/svg"
 width="519.000000pt" height="519.000000pt" viewBox="0 0 519.000000 519.000000"
 preserveAspectRatio="xMidYMid meet">
<metadata>
Created by potrace 1.14, written by Peter Selinger 2001-2017
</metadata>
<g transform="translate(0.000000,519.000000) scale(0.100000,-0.100000)"
fill="#000000" stroke="none">
<path d="M4240 3335 l0 -1545 428 2 427 3 0 1540 0 1540 -427 3 -428 2 0
-1545z"/>
<path d="M2885 4378 c-3 -7 -4 -591 -3 -1298 l3 -1285 460 0 460 0 5 29 c3 17
4 600 2 1298 l-2 1268 -460 0 c-359 0 -462 -3 -465 -12z"/>
<path d="M1525 3948 c-3 -7 -4 -488 -3 -1068 l3 -1055 495 -2 c272 -2 500 1
505 5 7 4 9 370 7 1070 l-2 1062 -500 0 c-391 0 -502 -3 -505 -12z"/>
<path d="M267 3333 c-4 -3 -7 -343 -7 -755 0 -591 3 -748 13 -748 9 -1 832 0
860 0 4 0 7 340 7 755 l0 755 -433 0 c-239 0 -437 -3 -440 -7z"/>
<path d="M438 1450 c-115 -61 -147 -213 -65 -315 43 -54 80 -69 173 -70 73 0
85 3 122 29 23 16 42 34 42 41 0 7 -14 25 -31 39 l-31 26 -33 -20 c-39 -24
-87 -26 -125 -3 -32 18 -40 38 -40 101 0 34 6 48 26 67 36 33 107 35 140 4
l23 -21 30 23 c54 44 50 63 -23 98 -56 28 -156 28 -208 1z"/>
<path d="M870 1459 c-155 -62 -178 -269 -39 -365 38 -26 50 -29 123 -29 88 1
122 13 168 62 96 103 66 257 -64 324 -41 21 -144 25 -188 8z m146 -104 c30
-20 47 -68 40 -109 -10 -53 -35 -77 -87 -83 -38 -4 -50 -1 -77 22 -29 24 -32
32 -32 80 0 43 5 57 26 79 31 30 95 36 130 11z"/>
<path d="M1230 1270 l0 -200 130 0 c148 0 182 11 238 74 72 82 50 222 -44 284
-47 31 -104 41 -221 42 l-103 0 0 -200z m261 71 c23 -24 29 -38 29 -73 0 -24
-7 -53 -15 -65 -17 -24 -71 -43 -122 -43 l-33 0 0 105 0 105 56 0 c48 0 59 -4
85 -29z"/>
<path d="M1690 1270 l0 -200 160 0 160 0 0 45 0 45 -100 0 -100 0 0 30 0 29
83 3 82 3 3 43 3 42 -85 0 -86 0 0 30 0 30 95 0 c93 0 95 1 101 25 3 14 3 36
0 50 l-6 25 -155 0 -155 0 0 -200z"/>
<path d="M2332 1449 c-118 -59 -155 -202 -79 -301 32 -40 52 -54 117 -83 19
-8 54 -31 78 -50 39 -32 50 -35 106 -35 93 0 128 31 88 81 -18 21 -20 22 -43
6 -27 -19 -38 -21 -59 -7 -12 7 -6 16 29 46 85 73 104 169 51 260 -54 95 -186
133 -288 83z m136 -80 c40 -14 65 -53 66 -105 1 -48 -21 -79 -71 -101 -65 -27
-133 25 -133 103 0 45 27 89 64 104 29 12 38 12 74 -1z"/>
<path d="M2745 1461 l-40 -6 1 -125 c0 -148 5 -169 45 -214 41 -47 115 -65
193 -47 104 23 139 99 134 287 l-3 99 -57 3 -58 3 0 -126 c0 -135 -7 -160 -46
-175 -29 -11 -77 9 -88 35 -3 9 -6 72 -6 140 0 103 -3 124 -16 129 -9 3 -16 5
-17 5 -1 -1 -20 -5 -42 -8z"/>
<path d="M3314 1462 l-40 -3 -78 -172 c-43 -95 -80 -182 -83 -195 -5 -22 -3
-23 48 -20 50 3 55 5 69 35 l15 33 83 0 82 0 17 -35 c16 -34 19 -35 70 -35 29
0 53 4 53 10 0 8 -50 125 -142 332 -22 50 -31 55 -94 50z m40 -175 c9 -23 16
-46 16 -50 0 -4 -18 -7 -40 -7 -29 0 -40 4 -40 15 0 23 28 85 38 85 5 0 17
-19 26 -43z"/>
<path d="M3594 1461 c-2 -2 -4 -91 -4 -198 l0 -193 151 0 150 0 -3 43 -3 42
-92 3 -92 3 -3 152 -3 152 -48 0 c-27 0 -50 -2 -53 -4z"/>
<path d="M4262 1462 l-183 -2 3 -43 3 -42 58 0 57 1 0 -154 0 -153 58 3 57 3
0 150 0 150 55 0 c49 0 55 2 58 23 2 12 7 22 12 22 4 0 35 -46 69 -103 59
-101 61 -105 61 -175 l0 -72 54 0 54 0 4 73 c4 69 8 78 76 191 39 65 69 123
66 128 -8 13 -97 0 -106 -15 -54 -89 -75 -121 -83 -124 -6 -2 -25 23 -43 56
-17 32 -38 63 -45 69 -17 14 -78 17 -285 14z"/>
<path d="M3930 1264 l0 -195 53 3 52 3 3 193 2 192 -55 0 -55 0 0 -196z"/>
<path d="M190 669 c-56 -25 -77 -44 -101 -91 -46 -89 -11 -209 76 -263 42 -26
58 -30 119 -30 51 0 84 7 119 22 l48 22 -3 83 -3 83 -45 0 -45 0 -5 -54 c-4
-49 -8 -55 -31 -62 -40 -10 -74 0 -104 31 -58 61 -35 157 43 181 34 10 45 8
86 -10 l47 -21 30 22 c34 25 36 39 11 61 -54 49 -165 61 -242 26z"/>
<path d="M1069 680 c-4 -3 -38 -73 -74 -155 -37 -83 -75 -167 -86 -188 -10
-21 -19 -40 -19 -42 0 -3 27 -5 59 -5 59 0 60 0 72 35 15 40 40 48 124 43 46
-3 51 -6 70 -40 20 -37 21 -38 77 -38 l57 0 -18 43 c-10 23 -41 92 -68 152
-27 61 -58 129 -68 153 -10 23 -24 42 -29 43 -56 3 -89 3 -97 -1z m77 -175 c9
-25 14 -48 11 -51 -2 -3 -23 -4 -45 -2 l-40 3 20 53 c11 29 23 50 28 47 5 -3
16 -26 26 -50z"/>
<path d="M2448 682 c-16 -3 -18 -21 -18 -198 l0 -194 55 0 55 0 0 100 0 101
83 -98 c81 -96 84 -98 130 -101 l47 -3 0 195 0 196 -55 0 -54 0 -3 -97 -3 -97
-75 91 c-82 101 -107 117 -162 105z"/>
<path d="M2995 677 c-86 -34 -135 -101 -135 -187 0 -145 124 -234 279 -200 96
21 101 27 101 126 l0 85 -47 -3 -48 -3 -5 -55 -5 -55 -39 -3 c-53 -5 -92 14
-110 53 -20 41 -20 56 -1 101 10 24 25 39 50 50 40 16 97 11 116 -12 16 -19
29 -17 64 11 37 31 29 50 -35 83 -49 25 -134 29 -185 9z"/>
<path d="M3434 676 c-3 -8 -4 -29 -2 -48 3 -33 3 -33 61 -36 l57 -3 0 -149 0
-150 60 0 60 0 0 150 0 150 60 0 60 0 0 50 0 50 -175 0 c-142 0 -177 -3 -181
-14z"/>
<path d="M3922 669 c-91 -45 -135 -142 -107 -237 27 -91 85 -138 181 -148 103
-11 190 31 231 109 20 40 20 144 0 183 -19 36 -62 77 -104 98 -47 24 -148 21
-201 -5z m171 -99 c50 -40 43 -146 -13 -175 -46 -24 -88 -19 -121 14 -24 25
-29 38 -29 79 0 40 5 54 26 76 34 33 98 36 137 6z"/>
<path d="M4390 664 c-51 -28 -74 -53 -95 -103 -46 -104 23 -241 137 -272 63
-17 150 -5 199 28 94 62 119 186 57 279 -45 66 -101 94 -187 94 -52 0 -75 -6
-111 -26z m184 -105 c38 -45 37 -110 -3 -150 -85 -85 -213 22 -156 131 20 38
41 49 92 50 34 0 46 -5 67 -31z"/>
<path d="M4776 675 c-3 -9 -6 -100 -6 -201 l0 -184 155 0 155 0 0 45 0 45 -96
0 -96 0 3 153 4 152 -56 3 c-45 2 -58 0 -63 -13z"/>
<path d="M522 488 l3 -193 55 0 55 0 3 48 c3 44 5 47 32 47 23 0 34 -9 60 -50
l32 -50 59 0 c54 0 74 10 49 25 -5 3 -22 26 -36 51 l-26 44 31 35 c48 56 52
116 10 176 -33 47 -75 59 -208 59 l-121 0 2 -192z m226 90 c7 -7 12 -24 12
-39 0 -35 -33 -59 -82 -59 -40 0 -47 12 -39 78 3 31 5 32 50 32 26 0 52 -5 59
-12z"/>
<path d="M1370 485 l0 -196 58 3 57 3 3 48 c3 47 3 47 40 47 74 1 123 17 157
50 68 66 53 171 -30 217 -35 20 -54 23 -162 23 l-123 0 0 -195z m227 93 c37
-48 2 -98 -67 -98 l-40 0 0 55 0 55 49 0 c27 0 53 -6 58 -12z"/>
<path d="M1790 485 l0 -195 55 0 55 0 0 75 0 75 75 0 75 0 0 -75 0 -75 55 0
55 0 0 195 0 195 -55 0 -55 0 0 -70 0 -70 -75 0 -75 0 0 70 0 70 -55 0 -55 0
0 -195z"/>
<path d="M2240 485 l0 -195 55 0 55 0 0 195 0 195 -55 0 -55 0 0 -195z"/>
</g>
</svg>
